<?xml version="1.0" encoding="utf-8"?>
<!-- Generator: Adobe Illustrator 16.0.0, SVG Export Plug-In . SVG Version: 6.00 Build 0)  -->
<!DOCTYPE svg PUBLIC "-//W3C//DTD SVG 1.1//EN" "http://www.w3.org/Graphics/SVG/1.1/DTD/svg11.dtd">
<svg version="1.1" id="Capa_1" xmlns="http://www.w3.org/2000/svg" xmlns:xlink="http://www.w3.org/1999/xlink" x="0px" y="0px"
	 width="312.621px" height="215.078px" viewBox="0 15.534 312.621 215.078" enable-background="new 0 15.534 312.621 215.078"
	 xml:space="preserve">
<g>
	<g>
		<g>
			<path fill="#FFFFFF" d="M50.249,229.683c-6.218-19.849-10.056-32.206-11.536-37.078c-0.834,2.965-1.79,6.164-2.863,9.605
				c-1.075,3.443-2.021,6.399-2.824,8.873c-0.81,2.478-1.861,5.674-3.151,9.603c-1.289,3.927-2.269,6.923-2.944,8.995h-7.262
				L7.043,185.428h6.978l9.483,36.227c1.319-4.306,5.188-16.383,11.622-36.227h7.622c6.403,20.275,10.167,32.315,11.292,36.107
				l9.363-36.107h6.897l-12.752,44.254L50.249,229.683L50.249,229.683z"/>
		</g>
		<g>
			<path fill="#FFFFFF" d="M95.146,230.612c-6.427,0-11.485-2.046-15.184-6.136c-3.699-4.087-5.549-9.68-5.549-16.78
				c0-6.857,1.791-12.419,5.369-16.681c3.574-4.263,8.277-6.436,14.114-6.514c5.488,0,9.838,1.876,13.051,5.628
				c3.213,3.755,4.819,8.762,4.819,15.024c0,0.328-0.005,0.919-0.021,1.777c-0.009,0.86-0.014,1.48-0.014,1.856H81.351
				c0.081,5.031,1.379,8.949,3.899,11.756c2.51,2.813,5.887,4.219,10.136,4.219c4.684,0,9.376-1.235,14.082-3.712l1.053,5.442
				C106.029,229.239,100.904,230.612,95.146,230.612z M101.946,193.595c-1.98-2.349-4.69-3.528-8.128-3.528
				c-3.439,0-6.253,1.216-8.428,3.652c-2.179,2.435-3.458,5.763-3.834,9.984h23.359
				C104.914,199.319,103.923,195.949,101.946,193.595z"/>
		</g>
		<g>
			<path fill="#FFFFFF" d="M137.225,230.528c-5.784,0-10.326-2.124-13.637-6.372c-3.31-4.251-4.96-9.927-4.96-17.023
				c0-6.887,1.645-12.417,4.939-16.601s7.833-6.275,13.615-6.275c6.294,0,10.743,2.236,13.352,6.697
				c-0.263-2.634-0.404-5.175-0.404-7.621v-14.321l10.571-0.686v61.358h-9.157l-1.174-6.054c-0.455,0.729-0.88,1.352-1.264,1.877
				c-0.396,0.521-0.966,1.128-1.715,1.814c-0.756,0.687-1.572,1.237-2.441,1.654c-0.875,0.414-1.979,0.78-3.308,1.091
				C140.307,230.373,138.838,230.528,137.225,230.528z M139.723,222.502c7.103,0,10.706-4.828,10.811-14.481
				c0-5.459-0.914-9.439-2.743-11.945c-1.83-2.5-4.561-3.751-8.188-3.751c-3.175,0-5.708,1.27-7.607,3.811
				c-1.89,2.544-2.839,6.291-2.839,11.234c0,4.924,0.949,8.68,2.839,11.26C133.894,221.209,136.469,222.502,139.723,222.502z"/>
		</g>
		<g>
			<path fill="#FFFFFF" d="M171.555,229.683v-44.335h8.872l1.373,6.778c2.897-4.653,7.107-6.979,12.626-6.979
				c1.156,0,2.1,0.054,2.818,0.157l-0.156,8.84c-1.075-0.164-2.191-0.247-3.35-0.247c-3.901,0-6.809,1.038-8.732,3.108
				c-1.926,2.072-2.884,4.949-2.884,8.632v24.044L171.555,229.683L171.555,229.683z"/>
		</g>
		<g>
			<path fill="#FFFFFF" d="M215.119,230.528c-4.113,0-7.446-1.139-9.984-3.41c-2.54-2.273-3.81-5.545-3.81-9.82
				c0-4.6,1.506-8.008,4.52-10.228c3.007-2.219,7.557-3.623,13.635-4.216c0.829-0.106,1.729-0.212,2.698-0.324
				c0.97-0.105,2.061-0.217,3.271-0.323c1.207-0.107,2.165-0.197,2.859-0.281v-2.343c0-2.689-0.614-4.646-1.851-5.867
				c-1.237-1.224-3.118-1.839-5.646-1.839c-3.603,0-8.058,1.011-13.355,3.029c-0.024-0.083-0.471-1.307-1.332-3.672
				c-0.857-2.37-1.299-3.577-1.328-3.627c5.218-2.236,10.865-3.354,16.945-3.354c5.967,0,10.306,1.301,13.026,3.895
				c2.72,2.594,4.078,6.8,4.078,12.605v28.926h-7.826c-0.031-0.104-0.328-1.011-0.89-2.703c-0.564-1.693-0.851-2.595-0.851-2.702
				c-2.205,2.15-4.358,3.73-6.473,4.737C220.693,230.022,218.129,230.528,215.119,230.528z M217.984,223.023
				c2.443,0,4.579-0.58,6.394-1.753s3.114-2.588,3.894-4.257v-8.553c-0.087,0-0.784,0.056-2.114,0.159
				c-1.341,0.109-2.055,0.164-2.16,0.164c-4.279,0.378-7.414,1.185-9.403,2.421s-2.983,3.226-2.983,5.97
				c0,1.881,0.551,3.326,1.654,4.337C214.37,222.519,215.938,223.023,217.984,223.023z"/>
		</g>
		<g>
			<path fill="#FFFFFF" d="M258.003,229.683l-13.438-44.335h10.772l8.52,32.517c0.181-0.621,1.715-5.906,4.589-15.853
				c2.885-9.955,4.508-15.506,4.889-16.664h10.845c0.35,1.131,1.899,6.632,4.644,16.498c2.744,9.873,4.224,15.17,4.434,15.9
				l8.759-32.395h10.605l-13.877,44.332h-10.532c-0.343-1.158-1.983-7.004-4.902-17.548c-2.914-10.541-4.49-16.23-4.737-17.065
				c-0.536,1.966-2.249,7.881-5.139,17.75c-2.891,9.872-4.569,15.494-5.025,16.863L258.003,229.683L258.003,229.683z"/>
		</g>
	</g>
	<g>
		<polygon fill="#F58D05" points="191.808,148.848 157.528,78.024 122.896,148.898 57.911,15.534 52.844,15.534 122.889,160.209 
			157.51,89.367 191.819,160.262 261.463,15.534 255.955,15.534 		"/>
		<polygon fill="#F58D05" points="191.3,106.573 168.891,60.18 190.11,16.421 185.388,16.421 164.17,60.175 191.304,116.342 
			239.532,16.421 234.816,16.421 		"/>
		<polygon fill="#F58D05" points="146.279,60.196 123.659,105.985 79.408,15.534 74.697,15.534 123.642,115.592 151,60.213 
			129.346,15.534 124.637,15.534 		"/>
		<polygon fill="#F58D05" points="156.957,29.792 150.178,15.534 145.815,15.534 156.937,38.917 168.203,15.534 163.829,15.534 		
			"/>
	</g>
</g>
</svg>
